<svg xmlns="http://www.w3.org/2000/svg" width="34" height="34" viewBox="0 0 34 34" fill="none">
  <rect x="0.5" y="0.5" width="33" height="33" rx="9.5" stroke="#D8DADC"/>
  <path d="M13.0769 16.9963C13.0769 17.1243 13.1 17.2424 13.1463 17.3507C13.1977 17.459 13.2747 17.5624 13.3775 17.6609L19.3816 23.2874C19.5563 23.4548 19.767 23.5385 20.0136 23.5385C20.1832 23.5385 20.3347 23.4991 20.4683 23.4203C20.6071 23.3465 20.7175 23.2431 20.7998 23.1102C20.882 22.9822 20.9231 22.8395 20.9231 22.6819C20.9231 22.4456 20.828 22.2364 20.6379 22.0543L15.2273 16.9963L20.6379 11.9383C20.828 11.7562 20.9231 11.5494 20.9231 11.3181C20.9231 11.1556 20.882 11.0104 20.7998 10.8824C20.7175 10.7544 20.6071 10.6535 20.4683 10.5797C20.3347 10.5009 20.1832 10.4615 20.0136 10.4615C19.767 10.4615 19.5563 10.5428 19.3816 10.7052L13.3775 16.3318C13.2747 16.4302 13.1977 16.5336 13.1463 16.6419C13.1 16.7502 13.0769 16.8683 13.0769 16.9963Z" fill="black"/>
</svg>