<svg width="97" height="84" viewBox="0 0 97 84" fill="none" xmlns="http://www.w3.org/2000/svg">
<path d="M94.2 32.4508L94.2022 32.449L82.0562 23.1014V4.13191H57.4077L55.0272 2.29992C51.043 -0.766336 45.4857 -0.766336 41.5014 2.29992L39.1495 4.13191H16.4417H14.9437L14.9436 22.9876L2.7976 32.449L2.7999 32.4508C1.3574 33.466 0.412598 35.1375 0.412598 37.0318V38.2335V78.2038C0.412598 81.3008 2.93064 83.8114 6.03675 83.8114H54.3837H90.963C94.0691 83.8114 96.5872 81.3008 96.5872 78.2038V37.0318C96.5872 35.1375 95.6424 33.466 94.2 32.4508Z" fill="#F6A654"/>
<path d="M55.0273 2.29968C51.0431 -0.76658 45.4858 -0.76658 41.5015 2.29968L39.1497 4.13166H57.4078L55.0273 2.29968Z" fill="#CB6739"/>
<path d="M82.0562 23.1012V37.2394V38.9454V41.9103L94.2 32.4506L94.2022 32.4488L82.0562 23.1012Z" fill="#CB6739"/>
<path d="M14.9437 32.8761V22.9874L2.79761 32.4488L2.79991 32.4506L14.9973 41.8377C14.9641 41.8122 14.9437 41.7964 14.9437 41.7964V32.8761Z" fill="#CB6739"/>
<path d="M57.4076 4.13173H39.1494H16.4416H14.9436V41.7965C14.9436 41.7965 17.5978 43.8396 21.1743 46.5925C21.2043 46.6156 21.2352 46.6393 21.2653 46.6625C22.457 47.5797 23.7485 48.5737 25.0768 49.5962C26.4611 50.6616 27.8845 51.7572 29.277 52.8289C29.6541 53.1192 30.0291 53.4077 30.4002 53.6934C31.5136 54.5504 32.5933 55.3813 33.6008 56.1567C34.1046 56.5444 34.5903 56.9182 35.0532 57.2744C35.2075 57.3931 35.3593 57.5099 35.5083 57.6246C35.8064 57.854 36.0936 58.075 36.3686 58.2866C36.6435 58.4982 36.9061 58.7003 37.1551 58.8918C37.4041 59.0834 37.6393 59.2644 37.8594 59.4337C38.9521 60.2744 39.6709 60.8272 39.8437 60.9596C39.8449 60.9606 39.8472 60.9623 39.8484 60.9632C39.8491 60.9637 39.8498 60.9643 39.8505 60.9648C39.9242 61.0213 39.9974 61.078 40.0701 61.135C40.2171 61.25 40.3622 61.3658 40.5066 61.4818C40.651 61.5979 40.7945 61.7142 40.938 61.8301C42.8031 63.3373 44.6609 64.7863 48.3068 64.8916C48.4469 64.8956 48.5898 64.8977 48.7354 64.8977C48.9449 64.8977 49.1543 64.8896 49.3635 64.8778C51.0564 64.7953 52.4123 64.389 53.5548 63.8254C53.9209 63.6448 54.2656 63.4485 54.5933 63.2424C54.7572 63.1393 54.9168 63.0338 55.0727 62.9265C55.3065 62.7656 55.532 62.6007 55.751 62.4344C56.408 61.9353 57.0066 61.423 57.5968 60.9632C57.8536 60.7632 58.4191 60.3227 59.2043 59.7111C59.4778 59.498 59.7776 59.2646 60.1024 59.0115C60.4949 58.7058 60.9217 58.3732 61.3785 58.0175C62.1185 57.4411 62.934 56.8058 63.8029 56.129C64.1564 55.8536 64.5171 55.5727 64.8861 55.2852C65.1646 55.0682 65.446 54.849 65.7317 54.6265C65.906 54.4907 66.0816 54.3539 66.2581 54.2164C66.9645 53.6662 67.6876 53.103 68.4169 52.5348C68.5992 52.3928 68.782 52.2504 68.9649 52.1078C69.3308 51.8228 69.6977 51.537 70.0641 51.2515C70.4306 50.9661 70.7967 50.6809 71.1611 50.397C71.2246 50.3476 71.2877 50.2985 71.3509 50.2492C71.7632 49.9281 72.1727 49.6091 72.5781 49.2933L73.2042 48.8056C73.5397 48.5442 73.8711 48.2861 74.1982 48.0314C74.2522 47.9893 74.3069 47.9466 74.3607 47.9047C74.7317 47.6157 75.0933 47.3341 75.4495 47.0566C75.5658 46.966 75.6831 46.8746 75.7976 46.7855C75.8183 46.7693 75.84 46.7524 75.8607 46.7364C75.8721 46.7275 75.8832 46.719 75.8945 46.7101C76.3668 46.3421 76.8234 45.9865 77.2591 45.6471C77.4146 45.5259 77.5672 45.4071 77.7173 45.2902C77.8544 45.1834 77.9895 45.0781 78.1219 44.9749C78.2267 44.8934 78.3283 44.8141 78.43 44.7349C79.091 44.2201 79.683 43.7589 80.1885 43.3651L80.4183 43.1861C81.1923 42.5832 81.728 42.1659 81.9449 41.9969L82.0127 41.9441C82.0388 41.9238 82.0561 41.9104 82.0561 41.9104V38.9455V37.2395V23.1012V4.13173H57.4076Z" fill="#E2F3FE"/>
<path d="M57.9875 12.629H23.832V16.6121H57.9875V12.629Z" fill="#383B4E"/>
<path d="M73.3675 18.8691H23.832V19.6657H73.3675V18.8691Z" fill="#383B4E"/>
<path d="M73.3675 21.1262H23.832V21.9228H73.3675V21.1262Z" fill="#383B4E"/>
<path d="M73.3675 23.3832H23.832V24.1799H73.3675V23.3832Z" fill="#383B4E"/>
<path d="M73.3675 25.6403H23.832V26.437H73.3675V25.6403Z" fill="#383B4E"/>
<path d="M56.7225 27.8974H23.832V28.694H56.7225V27.8974Z" fill="#383B4E"/>
<path d="M55.1691 37.1162C52.0371 34.1311 46.9328 33.8396 43.4753 36.4446C40.0169 39.0503 38.1467 43.9543 39.3141 48.1685C39.8828 50.2211 41.2296 52.0014 43.0367 53.1327C44.9467 54.3284 47.3054 54.6782 49.4951 54.1723C50.0618 54.0413 50.6033 53.8394 51.1327 53.6014C51.4777 53.4464 51.5607 52.9469 51.3841 52.6458C51.1765 52.292 50.7719 52.2396 50.4257 52.3952C48.6749 53.1821 46.5909 53.211 44.8153 52.4858C43.2262 51.8366 41.9096 50.5841 41.1424 49.0587C39.4597 45.713 40.6419 41.3095 43.098 38.6556C44.3241 37.3309 45.8836 36.4465 47.6709 36.1432C49.3915 35.8513 51.2515 36.183 52.7628 37.0482C55.6126 38.6795 57.3862 42.3823 56.3137 45.5783C56.0593 46.3363 55.6117 47.0743 54.9605 47.5563C54.6068 47.8181 54.1342 48.0765 53.6819 48.0613C53.3379 48.0497 53.126 47.8924 52.9627 47.6435C52.5206 46.9702 52.5211 46.0706 52.5246 45.2742C52.525 45.188 52.5281 45.1018 52.529 45.0156C52.7347 44.0318 52.7559 42.9969 52.6862 41.9841C52.7007 41.8246 52.7134 41.6648 52.7298 41.5054C52.7685 41.1296 52.3801 40.8069 52.0293 40.8069C51.8555 40.8069 51.7124 40.8667 51.5998 40.9616C50.343 40.1387 48.7035 40.0482 47.3218 40.6815C45.8122 41.3735 44.7663 42.9401 44.505 44.5517C44.2249 46.2804 44.7761 48.2675 46.5083 49.0173C48.1381 49.7228 50.0304 49.15 51.1741 47.8428C51.2546 47.7508 51.3296 47.6563 51.4026 47.5609C51.4562 47.727 51.5163 47.8915 51.5915 48.0524C52.0136 48.9551 52.915 49.5469 53.9294 49.4433C54.9527 49.3388 55.9173 48.7252 56.5662 47.9451C59.2281 44.7459 57.9714 39.7871 55.1691 37.1162ZM51.1296 44.929C51.0215 45.3694 50.8643 45.7969 50.6353 46.2005C50.0291 47.2695 48.918 48.1063 47.6278 47.9087C46.3575 47.7141 45.7995 46.5272 45.8256 45.3489C45.8521 44.1523 46.4544 42.8866 47.4617 42.2057C48.5597 41.4635 50.1371 41.43 51.1434 42.3586C51.1761 42.3888 51.21 42.4128 51.2442 42.4344C51.1782 43.2645 51.1412 44.0963 51.1296 44.929Z" fill="#383B4E"/>
<path d="M54.8584 64.8976L93.0752 81.8017L76.5634 71.7112L54.8584 64.8976Z" fill="#CB6739"/>
<path d="M27.0569 71.5708C26.5307 71.1931 39.4828 66.0939 38.9663 65.7034L40.9098 64.8976L38.6729 65.6159C36.3665 65.3419 23.392 68.7848 22.4555 67.9996C17.9934 64.2594 13.9643 60.0177 10.5043 55.3299C6.56203 49.9889 3.3669 44.1643 0.412598 38.2332V78.2035C0.412598 81.3005 2.93064 83.8112 6.03675 83.8112H54.3837C44.624 81.3642 35.2602 77.4603 27.0569 71.5708Z" fill="#F38F30"/>
<path d="M68.4405 56.7083L93.0751 34.5147L57.5969 62.6829L68.4405 56.7083Z" fill="#FFE179"/>
<path d="M28.3806 56.7083L39.2242 62.6829L3.74609 34.5147L28.3806 56.7083Z" fill="#FFE179"/>
<path d="M79.7592 30.5528V5.65858H53.3936L76.1639 9.04419L79.7592 30.5528Z" fill="white"/>
<path d="M21.1743 46.5924C21.2043 46.6155 21.2352 46.6392 21.2653 46.6624C22.457 47.5797 23.7485 48.5737 25.0768 49.5961C26.4611 50.6616 27.8845 51.7572 29.277 52.8289C29.6541 53.1192 30.0291 53.4077 30.4002 53.6934C31.5136 54.5503 32.5933 55.3812 33.6008 56.1566C34.1046 56.5443 34.5903 56.9181 35.0532 57.2744C35.2075 57.3931 35.3593 57.5099 35.5083 57.6246C35.8064 57.854 36.0936 58.0749 36.3686 58.2866C36.6435 58.4981 36.9061 58.7002 37.1551 58.8918C37.4041 59.0833 37.6393 59.2643 37.8594 59.4337C38.9521 60.2744 39.6709 60.8271 39.8437 60.9596C39.8449 60.9605 39.8472 60.9623 39.8484 60.9632C39.8491 60.9637 39.8498 60.9643 39.8505 60.9648C39.9242 61.0213 39.9974 61.078 40.0701 61.1349C40.2171 61.2499 40.3622 61.3657 40.5066 61.4818C40.651 61.5978 40.7945 61.7141 40.938 61.8301C42.8031 63.3373 44.6609 64.7862 48.3068 64.8915C48.4469 64.8955 48.5898 64.8976 48.7354 64.8976C48.9449 64.8976 49.1543 64.8896 49.3635 64.8777C51.0564 64.7952 52.4123 64.3889 53.5548 63.8253C53.9209 63.6448 54.2656 63.4485 54.5933 63.2424C54.7572 63.1393 54.9168 63.0338 55.0727 62.9265C55.3065 62.7656 55.532 62.6006 55.751 62.4343C56.408 61.9353 57.0066 61.4229 57.5968 60.9632C57.8536 60.7632 58.4191 60.3227 59.2043 59.7111C59.4778 59.498 59.7776 59.2645 60.1024 59.0114C60.4949 58.7057 60.9217 58.3732 61.3785 58.0174C62.1185 57.441 62.934 56.8058 63.8029 56.1289C64.1564 55.8536 64.5171 55.5726 64.8861 55.2851C65.1646 55.0682 65.446 54.849 65.7317 54.6264C65.906 54.4906 66.0816 54.3539 66.2581 54.2163C66.9645 53.6661 67.6876 53.1029 68.4169 52.5347C68.5992 52.3927 68.782 52.2504 68.9649 52.1078C69.3308 51.8228 69.6977 51.537 70.0641 51.2515C70.4306 50.9661 70.7967 50.6808 71.1611 50.397C71.2246 50.3476 71.2877 50.2985 71.3509 50.2491C71.7632 49.9281 72.1727 49.6091 72.5781 49.2932L73.2042 48.8056C73.5397 48.5442 73.8711 48.286 74.1982 48.0314C74.2522 47.9892 74.3069 47.9466 74.3607 47.9047C74.7317 47.6157 75.0933 47.334 75.4495 47.0565C75.5658 46.966 75.6831 46.8745 75.7976 46.7854C75.8183 46.7692 75.84 46.7524 75.8607 46.7363C75.8721 46.7274 75.8832 46.7189 75.8945 46.71C76.3668 46.342 76.8234 45.9865 77.2591 45.647C77.4146 45.5259 77.5672 45.407 77.7173 45.2901C77.8544 45.1833 77.9895 45.078 78.1219 44.9749C78.2267 44.8934 78.3283 44.8141 78.43 44.7349C79.091 44.22 79.683 43.7588 80.1885 43.365L80.4183 43.186C81.1923 42.5832 81.728 42.1659 81.9449 41.9969L82.0127 41.9441C82.0388 41.9238 82.0561 41.9103 82.0561 41.9103V38.9455C77.013 42.8739 60.8631 55.4542 59.095 56.8315C56.9964 58.4663 54.7916 60.766 50.2334 60.766C45.5738 60.766 43.7271 58.6556 41.3464 56.8315C40.2828 56.0166 16.4416 37.6648 16.4416 37.6648V4.13173H14.9436V41.7965C14.9436 41.7964 17.5978 43.8396 21.1743 46.5924Z" fill="#A1DAF8"/>
<path d="M82.0562 37.2393V38.9454V41.9102L94.2 32.4506L94.2022 32.4488L91.186 30.1275L82.0562 37.2393Z" fill="#A13827"/>
<path d="M14.9437 41.7964V32.8761L8.55801 27.9617L2.79761 32.4488L2.79991 32.4506L14.9973 41.8377C14.9641 41.8122 14.9437 41.7964 14.9437 41.7964Z" fill="#A13827"/>
<path d="M2.06055 81.0051L38.9665 65.7034L40.9099 64.8976L38.673 65.6159L20.1037 71.5784L2.06055 81.0051Z" fill="#CB6739"/>
</svg>
