<svg xmlns="http://www.w3.org/2000/svg" width="20" height="20" viewBox="0 0 20 20" fill="none">
  <g clip-path="url(#clip0_1_923)">
    <path fill-rule="evenodd" clip-rule="evenodd" d="M10 2.21249C15.16 2.21249 18.1 5.74416 19.3925 7.84916C19.7921 8.49542 20.0037 9.2402 20.0037 9.99999C20.0037 10.7598 19.7921 11.5046 19.3925 12.1508C18.1 14.2558 15.16 17.7875 10 17.7875C4.84004 17.7875 1.90004 14.2558 0.607543 12.1508C0.207983 11.5046 -0.00366211 10.7598 -0.00366211 9.99999C-0.00366211 9.2402 0.207983 8.49542 0.607543 7.84916C1.90004 5.74416 4.84004 2.21249 10 2.21249ZM10 16.1208C14.3492 16.1208 16.8617 13.0833 17.9717 11.2783C18.2091 10.8942 18.3348 10.4516 18.3348 9.99999C18.3348 9.54843 18.2091 9.10579 17.9717 8.72166C16.8617 6.91333 14.3492 3.87916 10 3.87916C5.65088 3.87916 3.13838 6.91666 2.02838 8.72166C1.79099 9.10579 1.66525 9.54843 1.66525 9.99999C1.66525 10.4516 1.79099 10.8942 2.02838 11.2783C3.13838 13.0833 5.65088 16.1208 10 16.1208ZM7.68513 6.53554C8.37033 6.0777 9.17591 5.83333 10 5.83333C11.1047 5.83466 12.1637 6.27407 12.9448 7.05518C13.7259 7.8363 14.1653 8.89534 14.1667 10C14.1667 10.8241 13.9223 11.6297 13.4645 12.3149C13.0066 13.0001 12.3559 13.5341 11.5945 13.8495C10.8332 14.1649 9.99538 14.2474 9.18713 14.0866C8.37887 13.9258 7.63644 13.529 7.05372 12.9463C6.471 12.3636 6.07417 11.6211 5.9134 10.8129C5.75262 10.0046 5.83514 9.16684 6.1505 8.40549C6.46587 7.64413 6.99992 6.99338 7.68513 6.53554ZM8.61108 12.0787C9.0222 12.3534 9.50555 12.5 10 12.5C10.663 12.5 11.2989 12.2366 11.7678 11.7678C12.2366 11.2989 12.5 10.663 12.5 10C12.5 9.50555 12.3534 9.0222 12.0787 8.61107C11.804 8.19995 11.4135 7.87952 10.9567 7.6903C10.4999 7.50108 9.99723 7.45157 9.51228 7.54804C9.02732 7.6445 8.58187 7.8826 8.23223 8.23223C7.8826 8.58186 7.6445 9.02732 7.54804 9.51227C7.45158 9.99723 7.50108 10.4999 7.6903 10.9567C7.87952 11.4135 8.19995 11.804 8.61108 12.0787Z" fill="#0C1A30"/>
  </g>
  <defs>
    <clipPath id="clip0_1_923">
      <rect width="20" height="20" fill="white"/>
    </clipPath>
  </defs>
</svg>