<svg width="101" height="100" viewBox="0 0 101 100" fill="none" xmlns="http://www.w3.org/2000/svg">
<path d="M100.5 50C100.5 54.2016 97.8622 57.6957 95.3108 61.0743C93.7801 63.1028 92.3331 65.0197 91.5168 66.9884C90.6499 69.0792 90.2729 71.6534 89.9105 74.1424C89.3079 78.263 88.6866 82.5258 85.855 85.356C83.0248 88.1862 78.7634 88.8075 74.6428 89.4103C72.1537 89.7741 69.5797 90.1498 67.4888 91.0166C65.5188 91.833 63.6033 93.28 61.5748 94.812C58.1963 97.3621 54.7022 100 50.5007 100C46.2979 100 42.8051 97.3622 39.4266 94.812C37.3981 93.28 35.4812 91.833 33.5125 91.0166C31.4217 90.1497 28.8476 89.774 26.3586 89.4103C22.2366 88.8076 17.9753 88.1863 15.1451 85.356C12.3149 82.5257 11.6922 78.263 11.0909 74.1424C10.7272 71.6533 10.3515 69.0792 9.48462 66.9884C8.6682 65.0197 7.22115 63.1028 5.68925 61.0743C3.13915 57.6957 0.5 54.2016 0.5 50C0.5 45.7984 3.13915 42.3043 5.68925 38.9257C7.22126 36.8972 8.6682 34.9803 9.48462 33.0116C10.3515 30.9208 10.7272 28.3467 11.0909 25.8576C11.6922 21.737 12.3148 17.4742 15.1451 14.644C17.9754 11.8138 22.2367 11.1925 26.3586 10.5897C28.8477 10.226 31.4217 9.85032 33.5125 8.98342C35.4812 8.16699 37.3981 6.71994 39.4266 5.18802C42.8051 2.63789 46.2978 0 50.5007 0C54.7023 0 58.1964 2.63778 61.5748 5.18802C63.6033 6.71994 65.5188 8.16699 67.4888 8.98342C69.5797 9.85032 72.1537 10.226 74.6428 10.5897C78.7634 11.1924 83.0248 11.8137 85.855 14.644C88.6866 17.4742 89.3079 21.737 89.9105 25.8576C90.2729 28.3467 90.65 30.9208 91.5168 33.0116C92.3332 34.9803 93.7802 36.8972 95.3108 38.9257C97.8622 42.3043 100.5 45.7984 100.5 50Z" fill="#81D14E"/>
<path d="M75.3628 42.4927L47.4222 70.4336C46.2607 71.5951 44.3776 71.5951 43.2161 70.4336L25.6367 52.854C24.4753 51.6926 24.4753 49.8094 25.6367 48.6479L29.9161 44.3685C31.0776 43.207 32.9606 43.207 34.1222 44.3685L45.3193 55.5656L66.8775 34.0072C68.0389 32.8457 69.922 32.8457 71.0836 34.0072L75.3629 38.2866C76.5243 39.4481 76.5243 41.3312 75.3628 42.4927Z" fill="white"/>
</svg>
