<svg width="259" height="70" viewBox="0 0 259 70" fill="none" xmlns="http://www.w3.org/2000/svg">
<path d="M13.764 8.63236H54.8549V14.2821H60.5047V55.5018H56.524V61.5368H13.3795V55.6296H7.60107V14.1534H13.3795C13.3795 14.1534 13.8927 8.50448 13.764 8.63236Z" fill="#FFFEE9"/>
<path d="M66.5613 16.2343C68.0559 16.2343 69.2666 15.0228 69.2666 13.529V2.70613C69.2666 1.21149 68.0551 0 66.5613 0H55.7384C54.2438 0 53.0323 1.21149 53.0323 2.70613V5.41143H16.2343V2.70613C16.2343 1.21149 15.0228 0 13.5282 0H2.7053C1.21066 0 0 1.21149 0 2.70613V13.529C0 15.0236 1.21149 16.2343 2.7053 16.2343H5.4106V53.0323H2.7053C1.21066 53.0323 0 54.2438 0 55.7384V66.5613C0 68.0559 1.21149 69.2674 2.7053 69.2674H13.5282C15.0228 69.2674 16.2343 68.0559 16.2343 66.5613V63.8552H53.0323V66.5613C53.0323 68.0559 54.2438 69.2674 55.7384 69.2674H66.5613C68.0559 69.2674 69.2666 68.0559 69.2666 66.5613V55.7384C69.2666 54.2438 68.0551 53.0323 66.5613 53.0323H63.8552V16.2343H66.5613ZM58.4437 5.41143H63.8552V10.8229H58.4437V5.41143ZM5.41143 5.41143H10.8229V10.8229H5.41143V5.41143ZM10.8229 63.8552H5.41143V58.4437H10.8229V63.8552ZM63.8552 63.8552H58.4437V58.4437H63.8552V63.8552ZM58.4437 53.0323H55.7384C54.2438 53.0323 53.0323 54.2438 53.0323 55.7384V58.4446H16.2343V55.7384C16.2343 54.2438 15.0228 53.0323 13.5282 53.0323H10.8229V16.2343H13.5282C15.0228 16.2343 16.2343 15.0228 16.2343 13.529V10.8237H53.0323V13.529C53.0323 15.0236 54.2438 16.2343 55.7384 16.2343H58.4437V53.0323Z" fill="#2F313F"/>
<path d="M45.4561 21.1051H23.8104C22.3158 21.1051 21.1043 22.3166 21.1043 23.8104V29.2219C21.1043 30.7165 22.3158 31.9272 23.8104 31.9272C25.3051 31.9272 26.5157 30.7157 26.5157 29.2219V26.5166H31.9272V42.7508H29.221C27.7264 42.7508 26.5157 43.9623 26.5157 45.4562C26.5157 46.9508 27.7272 48.1623 29.221 48.1623H40.0439C41.5385 48.1623 42.7492 46.9508 42.7492 45.4562C42.7492 43.9615 41.5377 42.7508 40.0439 42.7508H37.3378V26.5166H42.7492V29.2219C42.7492 30.7165 43.9607 31.9272 45.4553 31.9272C46.95 31.9272 48.1614 30.7157 48.1614 29.2219V23.8104C48.1623 22.3158 46.9508 21.1051 45.4561 21.1051Z" fill="#2F313F"/>
<path d="M86.5538 52.6337V19.8914H94.4809V52.6337H86.5538ZM81.9256 33.4315V26.4891H99.503V33.4315H81.9256ZM117.747 52.6337V36.5826C117.747 35.2368 117.369 34.2521 116.614 33.6284C115.892 32.9719 114.875 32.6437 113.562 32.6437C112.281 32.6437 111.133 32.8899 110.115 33.3822C109.13 33.8418 108.178 34.6131 107.259 35.6963L102.533 31.1173C104.108 29.5089 105.914 28.2452 107.949 27.3261C109.984 26.407 112.199 25.9475 114.596 25.9475C116.795 25.9475 118.699 26.2757 120.307 26.9322C121.915 27.5887 123.163 28.5899 124.049 29.9357C124.935 31.2815 125.378 32.9883 125.378 35.0563V52.6337H117.747ZM110.952 53.1261C109.311 53.1261 107.817 52.7979 106.472 52.1414C105.159 51.4849 104.108 50.5822 103.32 49.4333C102.565 48.2517 102.188 46.873 102.188 45.2975C102.188 43.9517 102.434 42.77 102.927 41.7524C103.419 40.7349 104.141 39.8979 105.093 39.2414C106.078 38.5521 107.292 38.0433 108.736 37.715C110.214 37.354 111.92 37.1734 113.857 37.1734H121.784L121.341 42.1463H114.054C113.365 42.1463 112.757 42.212 112.232 42.3433C111.707 42.4418 111.264 42.6223 110.903 42.8849C110.542 43.1147 110.263 43.3937 110.066 43.7219C109.902 44.0501 109.82 44.444 109.82 44.9036C109.82 45.3959 109.951 45.8227 110.214 46.1837C110.476 46.5448 110.821 46.8238 111.248 47.0208C111.707 47.2177 112.232 47.3162 112.823 47.3162C113.677 47.3162 114.481 47.1849 115.236 46.9223C116.023 46.6269 116.713 46.2166 117.304 45.6914C117.927 45.1662 118.42 44.5589 118.781 43.8696L120.159 47.4146C119.47 48.5307 118.633 49.5154 117.648 50.3688C116.696 51.2223 115.646 51.8952 114.497 52.3875C113.381 52.8799 112.199 53.1261 110.952 53.1261ZM140.514 53.1261C138.019 53.1261 135.787 52.7322 133.818 51.9444C131.848 51.1238 130.273 50.0078 129.091 48.5963L133.916 44.4605C134.934 45.478 136.083 46.233 137.363 46.7253C138.643 47.1849 139.858 47.4146 141.006 47.4146C141.433 47.4146 141.811 47.3654 142.139 47.2669C142.467 47.1685 142.746 47.0372 142.976 46.873C143.238 46.6761 143.435 46.4627 143.567 46.233C143.698 45.9704 143.764 45.675 143.764 45.3467C143.764 44.6902 143.485 44.1979 142.927 43.8696C142.664 43.7055 142.188 43.5085 141.499 43.2788C140.809 43.0162 139.923 42.7536 138.84 42.491C137.297 42.0971 135.951 41.6211 134.803 41.0631C133.687 40.5051 132.767 39.865 132.045 39.1429C131.389 38.4864 130.88 37.7315 130.519 36.878C130.191 36.0246 130.027 35.0727 130.027 34.0223C130.027 32.4139 130.503 31.0024 131.455 29.7879C132.439 28.5734 133.719 27.6379 135.295 26.9815C136.871 26.2921 138.577 25.9475 140.416 25.9475C141.86 25.9475 143.222 26.1116 144.502 26.4399C145.815 26.7681 147.03 27.2276 148.146 27.8185C149.295 28.4093 150.312 29.115 151.198 29.9357L147.013 34.6131C146.455 34.0551 145.799 33.5628 145.044 33.136C144.289 32.6765 143.534 32.3154 142.779 32.0528C142.024 31.7574 141.318 31.6097 140.662 31.6097C140.169 31.6097 139.726 31.6589 139.332 31.7574C138.971 31.8231 138.659 31.9544 138.397 32.1513C138.167 32.3154 137.987 32.5288 137.855 32.7914C137.724 33.0211 137.658 33.2837 137.658 33.5792C137.658 33.9402 137.74 34.2685 137.905 34.5639C138.101 34.8265 138.364 35.0727 138.692 35.3024C138.988 35.4666 139.496 35.6799 140.219 35.9425C140.974 36.2051 141.958 36.5005 143.173 36.8288C144.716 37.2555 146.029 37.7479 147.112 38.3059C148.228 38.8311 149.114 39.4547 149.771 40.1769C150.329 40.7349 150.722 41.3914 150.952 42.1463C151.215 42.8685 151.346 43.6563 151.346 44.5097C151.346 46.1837 150.87 47.6772 149.918 48.9902C148.999 50.2704 147.719 51.2879 146.078 52.0429C144.469 52.765 142.615 53.1261 140.514 53.1261ZM163.661 44.9528L160.855 38.946L173.016 26.4891H183.405L163.661 44.9528ZM156.079 52.6337V16.1986H164.006V52.6337H156.079ZM173.755 52.6337L164.646 40.8169L170.259 36.4841L183.159 52.6337H173.755ZM186.898 52.6337V26.4891H194.432L194.678 31.2158L193.595 31.3143C193.956 30.4608 194.448 29.7059 195.072 29.0494C195.695 28.3929 196.385 27.8513 197.14 27.4246C197.927 26.965 198.748 26.6204 199.601 26.3906C200.455 26.128 201.308 25.9967 202.162 25.9967C203.475 25.9967 204.64 26.1937 205.658 26.5876C206.708 26.9815 207.611 27.6215 208.366 28.5078C209.153 29.3941 209.777 30.5757 210.237 32.0528L209.055 31.8559L209.399 31.1666C209.859 30.3788 210.417 29.6731 211.074 29.0494C211.763 28.3929 212.518 27.8349 213.338 27.3754C214.159 26.9158 214.996 26.5712 215.849 26.3414C216.736 26.1116 217.589 25.9967 218.41 25.9967C220.478 25.9967 222.201 26.407 223.58 27.2276C224.958 28.0483 225.992 29.2628 226.682 30.8712C227.371 32.4467 227.716 34.3998 227.716 36.7303V52.6337H219.788V37.3211C219.788 35.7784 219.46 34.6295 218.804 33.8746C218.18 33.0868 217.228 32.6929 215.948 32.6929C215.259 32.6929 214.619 32.8078 214.028 33.0376C213.47 33.2345 212.977 33.5463 212.551 33.9731C212.157 34.367 211.845 34.8265 211.615 35.3517C211.385 35.8769 211.27 36.4677 211.27 37.1242V52.6337H203.343V37.2719C203.343 35.7948 202.999 34.6624 202.309 33.8746C201.653 33.0868 200.717 32.6929 199.503 32.6929C198.846 32.6929 198.223 32.8078 197.632 33.0376C197.074 33.2345 196.582 33.5463 196.155 33.9731C195.761 34.367 195.449 34.8265 195.219 35.3517C194.99 35.8769 194.875 36.4677 194.875 37.1242V52.6337H186.898ZM248.243 52.6337V36.5826C248.243 35.2368 247.865 34.2521 247.111 33.6284C246.388 32.9719 245.371 32.6437 244.058 32.6437C242.778 32.6437 241.629 32.8899 240.611 33.3822C239.627 33.8418 238.675 34.6131 237.756 35.6963L233.029 31.1173C234.604 29.5089 236.41 28.2452 238.445 27.3261C240.48 26.407 242.696 25.9475 245.092 25.9475C247.291 25.9475 249.195 26.2757 250.803 26.9322C252.412 27.5887 253.659 28.5899 254.545 29.9357C255.431 31.2815 255.875 32.9883 255.875 35.0563V52.6337H248.243ZM241.448 53.1261C239.807 53.1261 238.314 52.7979 236.968 52.1414C235.655 51.4849 234.604 50.5822 233.817 49.4333C233.062 48.2517 232.684 46.873 232.684 45.2975C232.684 43.9517 232.93 42.77 233.423 41.7524C233.915 40.7349 234.637 39.8979 235.589 39.2414C236.574 38.5521 237.788 38.0433 239.233 37.715C240.71 37.354 242.417 37.1734 244.353 37.1734H252.28L251.837 42.1463H244.55C243.861 42.1463 243.254 42.212 242.728 42.3433C242.203 42.4418 241.76 42.6223 241.399 42.8849C241.038 43.1147 240.759 43.3937 240.562 43.7219C240.398 44.0501 240.316 44.444 240.316 44.9036C240.316 45.3959 240.447 45.8227 240.71 46.1837C240.972 46.5448 241.317 46.8238 241.744 47.0208C242.203 47.2177 242.728 47.3162 243.319 47.3162C244.173 47.3162 244.977 47.1849 245.732 46.9223C246.52 46.6269 247.209 46.2166 247.8 45.6914C248.423 45.1662 248.916 44.5589 249.277 43.8696L250.656 47.4146C249.966 48.5307 249.129 49.5154 248.144 50.3688C247.193 51.2223 246.142 51.8952 244.993 52.3875C243.877 52.8799 242.696 53.1261 241.448 53.1261Z" fill="#2F313F"/>
</svg>
